HIERARCHY
ROOT Hips
{
  OFFSET 0.000000 0.000000 0.000000
  CHANNELS 6 Xposition Yposition Zposition Zrotation Xrotation Yrotation
  JOINT RightUpLeg
  {
    OFFSET -6.492147 -8.731347 1.335702
    CHANNELS 3 Zrotation Xrotation Yrotation
    JOINT RightLeg
    {
      OFFSET -8.811483 -27.024794 27.954018
      CHANNELS 3 Zrotation Xrotation Yrotation
      JOINT RightFoot
      {
        OFFSET 2.479477 -38.081219 -18.771446
        CHANNELS 3 Zrotation Xrotation Yrotation
        JOINT RightToeBase
        {
          OFFSET -6.592765 -6.586826 10.472497
          CHANNELS 3 Zrotation Xrotation Yrotation
          End Site
          {
            OFFSET 0.000000 4.000000 0.000000
          }
        }
      }
    }
  }
  JOINT LeftUpLeg
  {
    OFFSET 5.773605 -8.721775 -0.735183
    CHANNELS 3 Zrotation Xrotation Yrotation
    JOINT LeftLeg
    {
      OFFSET 17.640406 -29.150946 22.681658
      CHANNELS 3 Zrotation Xrotation Yrotation
      JOINT LeftFoot
      {
        OFFSET -0.779080 -36.097401 -22.382191
        CHANNELS 3 Zrotation Xrotation Yrotation
        JOINT LeftToeBase
        {
          OFFSET 9.300282 -6.055043 8.474888
          CHANNELS 3 Zrotation Xrotation Yrotation
          End Site
          {
            OFFSET 0.000000 4.000000 0.000000
          }
        }
      }
    }
  }
  JOINT Spine
  {
    OFFSET -0.708008 11.718660 -4.745970
    CHANNELS 3 Zrotation Xrotation Yrotation
    JOINT Spine1
    {
      OFFSET 1.721553 10.787725 8.172941
      CHANNELS 3 Zrotation Xrotation Yrotation
      JOINT Spine2
      {
        OFFSET 1.146763 3.471112 4.288814
        CHANNELS 3 Zrotation Xrotation Yrotation
        JOINT Neck
        {
          OFFSET 2.442182 20.212067 8.902873
          CHANNELS 3 Zrotation Xrotation Yrotation
          JOINT Head
          {
            OFFSET 1.260641 5.482006 8.392384
            CHANNELS 3 Zrotation Xrotation Yrotation
            End Site
            {
              OFFSET 0.000000 4.000000 0.000000
            }
          }
        }
        JOINT RightShoulder
        {
          OFFSET -6.373710 11.362637 5.886851
          CHANNELS 3 Zrotation Xrotation Yrotation
          JOINT RightArm
          {
            OFFSET -10.187457 -2.158868 6.662591
            CHANNELS 3 Zrotation Xrotation Yrotation
            JOINT RightForeArm
            {
              OFFSET -9.211951 -24.170208 -2.817814
              CHANNELS 3 Zrotation Xrotation Yrotation
              JOINT RightHand
              {
                OFFSET 16.883888 -17.721832 10.602467
                CHANNELS 3 Zrotation Xrotation Yrotation
                End Site
                {
                  OFFSET 0.000000 4.000000 0.000000
                }
              }
            }
          }
        }
        JOINT LeftShoulder
        {
          OFFSET 8.171416 10.992897 1.849092
          CHANNELS 3 Zrotation Xrotation Yrotation
          JOINT LeftArm
          {
            OFFSET 13.185427 -1.043952 -1.205036
            CHANNELS 3 Zrotation Xrotation Yrotation
            JOINT LeftForeArm
            {
              OFFSET 7.680183 -18.630665 -15.236044
              CHANNELS 3 Zrotation Xrotation Yrotation
              JOINT LeftHand
              {
                OFFSET -3.659779 -14.867520 17.945042
                CHANNELS 3 Zrotation Xrotation Yrotation
                End Site
                {
                  OFFSET 0.000000 4.000000 0.000000
                }
              }
            }
          }
        }
      }
    }
  }
}
MOTION
Frames: 14
Frame Time: 0.050000
4.924116 12.300962 0.773885 -15.134662 12.100849 -4.021235 17.576848 41.328638 -12.962648 24.649529 -70.269641 37.402400 -4.604595 39.227529 -39.395132 20.593176 -8.023400 43.592893 -6.000169 9.652185 4.621653 39.074936 -48.587772 10.960748 -46.575029 24.161201 -36.948574 20.042880 23.641300 57.047604 52.414172 -46.318484 11.153170 3.278906 11.720144 -32.389753 -10.118607 -1.390733 36.689258 12.303091 5.112190 -61.748153 -33.735941 -19.065952 58.154535 -18.953884 35.462142 -72.305124 -2.649612 -22.666958 76.171198 -59.777883 -20.772118 -133.646438 -66.279397 49.184494 146.324652 -14.675477 12.262010 -69.841776 27.815398 -17.261109 68.397794 -61.088912 59.481757 22.837377 35.031735 -16.211587 45.686673
5.936938 12.350702 1.725571 -15.584017 11.945262 -4.196459 18.138389 42.280256 -12.869905 23.503414 -71.053653 36.913420 -4.186384 39.165286 -40.590213 21.122191 -7.592938 44.423922 -5.861344 10.059842 4.966400 38.927630 -48.899219 11.185471 -46.111593 24.341532 -37.584199 19.848684 23.865563 57.384805 51.497206 -45.755026 11.312914 3.686449 12.430491 -32.091946 -10.363405 -2.146657 36.072111 13.213294 4.919974 -60.944502 -33.391101 -18.138837 57.029085 -17.696880 35.079491 -72.261356 -2.279409 -22.127064 75.732052 -58.875735 -23.820303 -131.404709 -64.590508 49.386360 141.405501 -13.651449 12.387579 -69.276401 27.322989 -17.306188 67.019925 -58.856406 58.389579 20.132492 34.810970 -15.125371 45.365425
6.945930 12.503063 2.670323 -15.963280 11.926441 -4.323225 18.540352 42.822936 -12.733862 21.655708 -71.624310 35.780108 -3.232951 39.005324 -41.578411 21.336519 -7.466515 44.788270 -6.069213 10.455341 5.077022 38.913259 -48.714698 11.579028 -45.826165 24.586430 -38.996000 20.075890 24.310251 58.229370 50.424371 -45.028812 11.351279 4.033171 13.140345 -31.510142 -10.694326 -2.750337 35.160356 13.993144 4.579517 -59.399825 -32.834707 -16.944923 55.461563 -16.413083 34.179921 -71.911293 -1.180563 -20.487920 75.349981 -57.288217 -24.405061 -124.932570 -58.726543 52.203062 134.332596 -13.402578 12.484111 -68.048898 26.757284 -16.711823 64.961513 -54.674992 56.756391 16.191973 33.852630 -14.076901 44.120675
7.849648 12.686616 3.530450 -16.617926 12.255225 -4.469406 19.146687 43.390571 -12.530064 19.886659 -72.032164 34.764701 -1.990544 39.200054 -43.705986 22.014363 -7.728440 46.274120 -6.108952 10.846077 5.525158 38.828421 -49.040586 11.985224 -46.118323 25.181902 -41.506456 20.384069 25.477228 60.368461 48.653755 -43.831235 11.634229 4.764683 14.474381 -30.727473 -11.420614 -3.752753 33.595300 15.806740 4.396733 -57.212247 -31.306518 -16.078150 52.888022 -15.422741 31.988176 -70.148775 0.328274 -16.994482 73.830985 -54.210855 -27.702744 -115.361301 -49.266595 54.227224 120.383422 -13.740659 12.407538 -65.751945 26.396472 -15.004352 61.219947 -48.007080 53.305132 10.192457 31.981066 -12.155289 41.668147
8.518370 12.910962 4.164824 -16.850734 12.286032 -4.538269 19.438665 43.354427 -12.014270 17.181599 -71.735898 32.317555 -1.799028 38.605833 -43.814083 21.966556 -7.721640 46.175013 -6.465032 11.455520 5.870020 38.566483 -49.535051 12.325341 -46.253800 26.174151 -43.077040 21.049570 26.133439 61.672438 45.759332 -42.178178 11.353162 5.241731 15.461967 -28.881848 -11.770132 -4.697064 31.264096 17.105776 4.942975 -53.682653 -29.245848 -14.393144 49.059077 -13.962474 29.883835 -67.641224 2.104418 -12.512219 71.210335 -50.278902 -28.364490 -101.749475 -33.261724 55.832892 101.116979 -14.024077 12.727488 -61.659107 25.823353 -13.840325 55.908596 -40.142072 46.668148 4.219243 28.664758 -8.192320 37.185006
8.922121 13.042080 4.538997 -16.933052 12.090054 -4.605156 19.513755 43.236434 -11.624884 15.415971 -70.648324 30.445402 -1.766354 37.826599 -43.445707 21.656732 -8.188057 45.781244 -6.692716 11.883649 6.006633 38.094096 -50.052786 12.600552 -46.409834 27.463834 -44.018766 21.699551 26.622968 62.658065 42.063081 -39.545440 10.549585 5.419865 16.503859 -26.184766 -11.778278 -5.517089 28.072523 18.165948 6.491711 -49.000378 -25.964572 -13.447663 44.038687 -13.349028 26.480270 -62.308300 3.323423 -7.382506 65.647638 -43.703694 -30.787770 -86.038224 -17.844704 52.741991 78.963734 -14.858907 12.388883 -55.657717 25.387924 -13.010670 49.190517 -31.896436 37.194053 -0.011556 24.036102 -2.487446 30.656573
9.036215 13.201183 4.710282 -16.819210 12.127204 -4.560617 19.515476 42.839923 -11.261181 15.051565 -69.655846 29.565974 -2.886965 36.960479 -42.285226 21.328929 -8.159870 45.116715 -6.959711 11.977699 5.922333 37.740366 -50.504571 12.828164 -46.809927 28.679782 -44.824051 22.302315 27.161352 63.703271 38.515272 -37.210399 10.043172 5.417095 17.766777 -23.601094 -11.500832 -6.259921 24.851469 18.535521 8.488901 -43.850239 -22.257055 -13.164405 38.694421 -13.395175 22.401121 -55.600912 4.584172 -3.546119 58.782335 -33.900892 -32.842533 -69.964101 -9.580609 46.486868 61.561454 -15.602562 11.337188 -49.189477 24.855614 -13.240552 42.715142 -24.082977 27.077773 -1.545407 19.110738 4.134638 23.247812
8.905855 13.287473 4.728610 -16.425555 12.112312 -4.436117 19.437476 42.400253 -10.953233 13.977562 -68.644812 28.054083 -3.814501 35.847164 -40.912657 20.809117 -8.176898 44.096743 -7.273359 11.904463 5.629980 37.123776 -50.812869 12.890762 -46.637132 29.519335 -45.182801 22.515745 27.365511 64.092861 34.912503 -34.998969 9.539329 5.228315 18.703732 -21.017354 -10.961303 -6.750436 21.713722 17.753816 10.740816 -37.959351 -18.332812 -12.994664 32.912376 -13.534068 18.156213 -48.394076 5.461868 -0.346009 51.041343 -23.620271 -32.888087 -54.699832 -5.447468 39.503590 48.169297 -16.067291 9.924577 -42.237726 23.901745 -14.158392 35.850159 -16.958600 17.653684 -0.623638 14.483771 10.507224 15.804725
8.611078 13.393534 4.651073 -15.700248 12.458699 -4.133811 19.408189 41.738982 -10.578122 12.596080 -68.317598 26.213822 -5.066691 35.204056 -39.800596 20.585866 -7.921297 43.526337 -7.714978 11.493006 5.157977 36.365916 -51.390748 12.839113 -46.456956 30.404380 -45.304594 22.651350 27.508275 64.362001 31.266775 -33.407548 9.213403 5.004162 19.689362 -18.720129 -10.339521 -7.338366 18.859738 16.483291 13.040289 -32.190527 -14.431416 -13.488438 27.311527 -13.432435 13.766355 -41.062928 6.339366 1.426620 43.135272 -13.314270 -30.307572 -40.894575 -4.071405 32.540091 37.301789 -15.891280 8.185702 -35.372889 22.305391 -15.320104 28.963427 -9.926835 9.559453 2.003520 10.210930 16.172379 8.533334
8.195555 13.456297 4.528278 -14.699920 13.010943 -3.710264 19.201214 40.767081 -10.295979 11.083913 -68.322871 24.319688 -6.124728 35.194715 -39.297272 20.667602 -7.673364 43.561076 -8.387772 10.949276 4.518773 35.705615 -52.172918 12.821400 -46.248776 31.218973 -45.389943 22.583194 27.683740 64.658778 27.649324 -32.316631 8.885036 4.630461 20.422333 -16.479750 -9.764733 -7.788860 16.256435 14.780690 14.475094 -26.567874 -11.009276 -13.709159 22.088982 -12.864626 9.706704 -34.452317 7.341803 1.804271 36.037430 -5.363321 -25.221080 -30.247877 -3.710968 26.291593 28.506285 -15.292698 6.453696 -28.853018 20.124182 -16.479299 22.533546 -2.539243 2.771003 5.585472 6.326490 21.380147 1.481011
7.713882 13.547826 4.396818 -13.557221 14.003567 -3.173030 18.861696 39.255169 -9.949121 10.096010 -68.395548 22.742457 -7.424255 35.879278 -39.317482 21.122297 -7.565223 44.410157 -9.176625 10.008764 3.616110 35.135158 -52.859663 12.827699 -46.313884 32.189653 -45.425540 22.805406 27.871886 65.017945 24.195210 -31.761287 8.560692 3.883767 21.015989 -13.954619 -9.194133 -8.109246 13.663352 13.086361 15.387797 -21.346293 -7.891475 -14.109743 17.272539 -11.689300 5.840976 -28.281025 8.277520 0.849665 29.534050 1.482876 -18.664917 -21.647774 -4.726002 20.464342 20.570517 -13.819076 4.626142 -22.794697 17.275709 -17.229096 16.407095 4.684246 -3.075817 9.921886 2.970682 26.206159 -5.147534
7.209588 13.658661 4.308572 -12.402693 14.931865 -2.662009 18.428310 37.792613 -9.721975 9.358022 -68.557227 21.465203 -8.707242 36.634115 -39.387827 21.621431 -7.344193 45.298175 -10.014084 9.185235 2.747433 34.565939 -53.684156 12.852891 -46.066722 32.967774 -45.453905 22.692204 28.014154 65.252075 21.195763 -31.579975 8.164091 3.005129 21.322743 -11.614257 -8.542981 -8.201194 11.405861 11.388665 15.752036 -16.973646 -5.440231 -14.286982 13.314724 -10.307950 2.800175 -22.739077 9.331451 -1.205045 24.103489 6.026629 -12.239664 -16.390816 -6.643961 16.351348 14.663077 -12.014943 3.209299 -17.821293 14.174696 -17.639558 11.545742 10.647635 -8.036523 13.795448 0.849928 30.720078 -10.406297
6.731957 13.756484 4.282681 -11.527785 15.718955 -2.272728 18.153063 36.683934 -9.473659 8.644169 -68.911049 20.353560 -9.704694 37.455504 -39.572594 22.094870 -7.194807 46.178084 -10.594705 8.512671 2.141261 33.951322 -54.369639 12.736532 -45.698196 33.494741 -45.298356 22.591421 27.966606 65.155633 18.977796 -31.702474 7.890465 2.039210 21.256922 -9.394972 -7.915180 -7.960875 9.427449 9.884139 15.870330 -13.443123 -3.528080 -14.241773 10.091041 -8.896545 0.705645 -18.112384 10.189747 -3.334048 19.719787 8.610407 -7.106505 -13.500650 -8.450068 13.743175 10.595737 -10.015580 2.355860 -13.939613 11.396323 -17.595178 7.687624 14.911627 -11.627140 17.068345 -0.423879 34.013924 -14.188894
6.306644 13.854742 4.316312 -10.790593 16.159308 -1.989427 17.864775 35.958106 -9.408074 8.363741 -69.065460 19.724353 -10.367481 38.067926 -39.644301 22.373767 -7.245310 46.766197 -11.091656 8.137685 1.694631 33.339628 -54.965018 12.615934 -45.299572 33.955045 -45.217453 22.440648 27.939996 65.089097 17.366490 -31.747881 7.554208 1.153387 20.951035 -7.593889 -7.380783 -7.646316 7.950312 8.764785 15.802119 -10.988649 -2.245987 -14.030293 7.835843 -7.848965 -0.590444 -14.664529 10.746758 -5.265231 16.635518 10.272403 -3.477334 -12.124616 -10.009709 12.299633 8.014986 -8.493877 1.962682 -11.132921 9.411590 -17.268697 4.933134 17.606543 -14.484351 19.439862 -0.929022 36.544651 -16.665066
